<?xml version="1.0" encoding="utf-8"?>
<!DOCTYPE svg PUBLIC "-//W3C//DTD SVG 20010904//EN" "http://www.w3.org/TR/2001/REC-SVG-20010904/DTD/svg10.dtd">
<svg version="1.0" width="981.75pt" height="984pt" viewBox="0 0 981.75 984" preserveAspectRatio="xMidYMid meet" xmlns="http://www.w3.org/2000/svg">
  <g transform="translate(0,984)scale(.075,.075)" fill="#0B083D">
    <path id="path1" d="M 0 -6560 l 0 6560 6545 0 6545 0 0 -6560 0 -6560 -6545 0 -6545 0 0 6560 z " fill="#0B083D" />
    <path id="path2" d="M 6985 -13000 c 964 71 1839 333 2693 806 511 283 991 650 1432 1093 323 325 564 623 839 1036 382 575 668 1231 847 1945 227 906 250 1863 65 2788 -204 1017 -618 1903 -1276 2732 -204 256 -352 418 -593 645 -623 587 -1206 975 -1957 1305 -245 107 -334 142 -520 203 -131 42 -181 57 -437 129 -210 60 -618 133 -910 164 -446 48 -978 38 -1443 -26 -590 -81 -1247 -277 -1785 -532 -771 -365 -1351 -771 -1938 -1356 -372 -372 -549 -587 -830 -1007 -172 -257 -278 -441 -398 -690 -184 -383 -302 -687 -404 -1045 -254 -888 -314 -1792 -181 -2711 75 -518 229 -1065 438 -1559 65 -154 219 -464 305 -615 468 -819 1056 -1488 1798 -2044 763 -573 1670 -976 2595 -1155 178 -34 523 -83 680 -96 71 -5 146 -12 165 -13 87 -9 690 -6 815 3 z " fill="#FFF" />
    <path id="path3" d="M 8100 -12666 c 0 4 93 34 125 40 48 10 115 31 115 38 0 9 -56 0 -82 -13 -19 -10 -82 -21 -116 -21 -12 0 -22 -4 -22 -8 0 -9 -26 -7 -36 2 -8 8 -37 -2 -46 -16 -5 -7 -8 -6 -8 3 0 8 -6 11 -16 7 -11 -4 -22 1 -31 14 -12 17 -18 18 -35 9 -17 -9 -24 -8 -33 4 -8 11 -16 12 -28 6 -20 -12 -61 7 -51 23 4 7 3 8 -4 4 -7 -4 -12 -1 -12 8 0 8 6 17 12 19 10 4 10 6 1 6 -6 1 -15 -3 -18 -9 -3 -6 -11 -10 -16 -10 -6 0 -7 4 -4 10 3 6 -4 10 -16 10 -22 0 -22 0 -3 -22 14 -17 15 -19 2 -10 -9 8 -26 11 -37 7 -10 -3 -22 -1 -25 4 -6 9 -42 7 -72 -3 -6 -2 -16 -1 -23 3 -7 5 61 22 150 40 271 54 641 162 924 268 219 83 413 183 354 183 -6 0 -86 -30 -178 -66 -338 -134 -712 -247 -1052 -319 -230 -48 -537 -95 -419 -64 19 5 53 12 75 15 60 7 71 12 56 27 -9 9 -14 9 -21 -3 -7 -10 -10 -11 -10 -2 0 6 -6 12 -14 12 -8 0 -16 7 -20 15 -3 8 -11 15 -18 14 -10 0 -10 -2 -1 -6 10 -3 10 -7 0 -17 -8 -9 -21 -11 -40 -5 -15 4 -28 8 -30 8 -1 0 -11 3 -21 7 -19 7 -19 8 0 15 17 7 17 8 1 8 -10 1 -16 5 -12 11 3 5 13 7 23 4 14 -5 15 -4 2 5 -9 6 -19 6 -24 1 -4 -4 -15 -6 -22 -3 -8 3 -14 -1 -14 -8 -1 -9 -4 -8 -11 3 -11 19 -39 25 -39 8 0 -5 -6 -7 -14 -4 -8 3 -13 11 -10 19 3 7 -5 15 -18 19 -35 9 -42 7 -29 -8 9 -10 8 -15 -4 -20 -10 -4 -15 1 -15 14 0 15 -7 20 -25 20 -15 0 -23 5 -20 12 4 10 -20 13 -102 11 l -108 -1 140 13 c 1087 107 2040 471 2885 1103 587 440 1004 885 1440 1537 245 365 430 730 586 1155 181 489 296 1051 335 1628 17 238 6 730 -20 947 -69 580 -169 986 -363 1477 -133 335 -345 747 -526 1020 -233 352 -560 751 -832 1013 -962 928 -2181 1507 -3448 1637 -311 32 -775 33 -1084 0 -316 -32 -579 -80 -866 -157 -872 -235 -1634 -640 -2352 -1250 -279 -238 -613 -597 -862 -929 -146 -193 -281 -399 -393 -596 -229 -404 -324 -618 -470 -1055 -193 -580 -285 -1151 -285 -1774 0 -595 103 -1239 285 -1786 233 -697 585 -1319 1100 -1940 131 -157 508 -536 677 -679 738 -623 1560 -1035 2468 -1235 250 -55 469 -88 835 -124 22 -3 -13 -3 -77 -2 -86 1 -118 -2 -122 -11 -3 -7 -14 -10 -27 -7 -18 5 -20 3 -15 -14 6 -20 -8 -34 -39 -38 -5 0 -9 -6 -8 -13 2 -8 -4 -9 -23 -2 -35 14 -41 13 -48 -6 -3 -8 -2 -13 2 -10 5 3 9 -1 9 -9 0 -10 -5 -11 -19 -4 -10 5 -18 8 -18 5 0 -3 -13 -1 -30 4 -28 8 -29 8 -19 -13 10 -18 9 -20 -2 -9 -16 14 -33 16 -24 2 4 -6 -3 -8 -17 -6 -13 3 -27 5 -31 5 -5 1 -6 5 -3 10 4 5 -3 7 -15 4 -15 -4 -17 -8 -8 -14 8 -4 11 -11 7 -14 -3 -3 -13 1 -21 9 -11 12 -16 13 -19 4 -4 -10 -10 -10 -31 -1 -22 10 -25 10 -21 -2 4 -8 35 -19 82 -26 42 -7 71 -14 64 -17 -18 -6 -250 34 -437 74 -350 76 -607 154 -962 293 -100 39 -188 71 -197 71 -42 0 9 -33 137 -90 356 -157 776 -286 1167 -360 233 -44 249 -48 219 -49 -14 -1 -50 3 -80 9 -103 18 -128 19 -122 1 3 -9 -4 -5 -16 9 -11 14 -21 19 -21 12 0 -14 -31 -12 -42 3 -4 5 -7 -2 -6 -17 2 -29 8 -34 22 -21 14 14 35 11 41 -5 3 -9 3 -13 -1 -9 -4 4 -18 0 -30 -8 -14 -9 -25 -11 -29 -5 -3 6 -11 10 -16 10 -6 0 -7 -5 -4 -10 3 -6 3 -10 -2 -11 -4 0 -16 -2 -25 -4 -11 -2 -15 2 -12 13 3 10 -2 4 -12 -12 -14 -25 -18 -27 -26 -13 -11 20 -29 22 -22 2 4 -10 0 -15 -15 -15 -24 0 -27 10 -9 30 11 12 10 12 -2 3 -19 -13 -76 -24 -84 -16 -12 13 -36 12 -36 0 0 -7 -5 -5 -10 3 -8 12 -10 12 -10 1 0 -11 -3 -11 -15 -1 -12 10 -15 10 -15 0 0 -10 -3 -10 -15 0 -9 7 -32 14 -53 16 -20 2 -48 5 -62 8 -14 4 -45 10 -70 14 -25 5 -51 12 -58 16 -7 4 -12 3 -12 -3 0 -6 18 -16 40 -22 22 -7 38 -14 36 -17 -7 -7 -300 86 -471 150 -809 301 -1559 781 -2194 1403 -351 345 -592 632 -843 1007 -533 794 -862 1653 -998 2608 -49 341 -55 443 -55 890 0 424 6 534 45 810 88 620 253 1196 501 1745 119 264 359 698 492 893 516 749 1112 1330 1879 1831 260 169 361 227 636 365 337 169 521 245 877 362 423 140 838 227 1340 281 220 23 843 23 1057 -1 618 -68 1093 -183 1686 -406 488 -184 1048 -499 1530 -862 735 -551 1383 -1310 1830 -2140 132 -244 300 -641 402 -947 129 -387 238 -902 286 -1349 21 -201 30 -742 15 -962 -76 -1148 -441 -2223 -1070 -3147 -231 -340 -455 -609 -775 -929 -356 -356 -674 -613 -1064 -863 -263 -168 -609 -352 -887 -471 -260 -112 -658 -249 -890 -307 -11 -2 -28 -7 -37 -9 -10 -3 -18 -3 -18 0 z " fill="#0B083D" />
    <path id="path4" d="M 2965 -11382 c -6 5 -93 78 -195 163 -441 367 -781 727 -1060 1120 -51 71 -95 131 -100 134 -4 3 -13 -1 -19 -9 -8 -10 9 -41 74 -137 268 -393 703 -847 1164 -1218 103 -82 116 -90 130 -76 9 9 12 18 6 23 z m 7281 29 c 366 274 811 726 1125 1143 148 197 178 250 139 250 -5 0 -54 -63 -109 -139 -305 -422 -752 -889 -1145 -1194 -54 -43 -105 -81 -114 -86 -15 -9 -11 -41 7 -41 5 0 49 30 97 67 z m -9081 2203 c 4 6 -18 68 -49 138 -263 606 -447 1333 -496 1957 -6 77 -15 154 -20 171 -8 31 -7 32 26 32 19 0 36 -3 38 -6 2 -4 7 -54 11 -112 4 -58 11 -123 16 -145 8 -39 8 -38 4 10 -3 27 -8 98 -11 157 l -7 108 -138 0 -139 0 0 -58 c 0 -96 13 -224 21 -211 4 7 5 18 2 26 -3 8 3 13 17 13 11 0 19 -4 16 -9 -4 -5 4 -6 16 -3 18 5 19 7 6 10 -12 2 -15 10 -12 30 7 34 14 42 14 14 0 -11 4 -24 10 -27 6 -3 7 1 4 10 -4 11 -2 14 9 9 9 -3 18 -24 22 -50 5 -34 10 -44 21 -40 8 3 14 -1 14 -10 0 -8 -5 -12 -10 -9 -6 3 -10 -1 -10 -10 0 -9 4 -13 10 -10 11 7 12 3 40 -180 47 -311 159 -786 255 -1085 85 -261 281 -730 306 -730 4 0 11 5 14 10 z m 10860 92 c 144 309 326 863 400 1218 54 258 135 806 135 913 0 47 -1 48 -28 45 l -27 -3 -12 -131 c -46 -513 -146 -1007 -299 -1474 -65 -199 -193 -531 -240 -621 -8 -16 -12 -34 -9 -39 16 -25 36 -2 80 92 z m -11357 2490 l -3 133 -137 3 -138 3 0 -136 0 -135 140 0 141 0 -3 132 z m 12052 3 l 0 136 -138 -3 -137 -3 -3 -133 -3 -132 141 0 140 0 0 135 z m -12131 327 c 4 13 16 111 25 218 41 473 134 930 281 1379 62 188 191 515 250 632 16 31 21 50 14 54 -13 9 -10 14 -58 -83 -295 -590 -510 -1405 -557 -2120 -7 -100 -6 -102 15 -102 13 0 25 9 30 22 z m 11986 0 c 9 24 12 78 5 78 -4 0 -10 39 -14 88 -21 268 -90 669 -165 966 -81 316 -151 523 -286 841 -95 225 -144 320 -157 307 -7 -7 8 -55 52 -159 34 -81 85 -202 112 -268 186 -454 324 -1044 373 -1605 24 -268 22 -260 51 -260 14 0 27 6 29 12 z m -10972 3043 c 22 31 12 33 -14 3 -10 -13 -18 -18 -19 -11 0 6 16 30 35 53 19 23 35 38 35 33 0 -5 -5 -14 -12 -21 -6 -6 -9 -14 -6 -17 3 -3 64 72 135 167 164 219 245 316 420 503 239 256 527 512 843 749 193 145 204 160 20 28 -47 -34 -89 -62 -95 -61 -14 0 59 62 137 115 66 45 88 66 48 44 -38 -20 -336 -247 -440 -335 -308 -260 -520 -471 -757 -757 -206 -247 -381 -487 -368 -507 9 -16 18 -13 38 14 z m 9952 -15 c 9 15 -162 268 -276 410 -317 395 -669 738 -1058 1034 -156 118 -359 256 -378 256 -35 0 -3 -36 95 -103 559 -388 1110 -929 1499 -1474 52 -73 99 -133 103 -133 5 0 12 5 15 10 z m -2360 2070 c 9 15 -287 157 -497 240 -383 151 -722 252 -1041 309 -205 37 -546 81 -657 84 -80 2 -85 1 -88 -20 -3 -20 2 -22 75 -28 420 -34 648 -69 957 -147 394 -99 903 -282 1171 -421 55 -29 71 -32 80 -17 z m -4955 120 c 558 244 1184 404 1790 459 l 185 16 3 28 c 4 33 10 33 -213 7 -609 -73 -1150 -210 -1650 -421 -179 -75 -308 -140 -313 -158 -6 -19 3 -16 198 69 z m 2448 498 l -3 137 -127 3 -128 3 0 -141 0 -140 130 0 131 0 -3 138 z " fill="#FFF" />
    <path id="path5" d="M 6865 -12223 c 22 2 47 6 55 10 8 3 22 5 30 4 8 -2 12 0 8 5 -4 4 -19 7 -33 8 -14 1 -25 6 -24 11 1 5 5 9 11 7 5 -1 7 2 3 8 -3 6 -10 8 -15 5 -18 -11 -50 14 -43 33 6 16 6 16 -11 0 -19 -20 -31 -24 -21 -8 10 17 -5 32 -20 20 -10 -8 -13 -6 -11 7 1 13 -7 18 -29 19 -17 1 -41 7 -55 12 -22 9 -23 11 -5 13 11 1 25 1 30 0 5 -1 1 5 -9 14 -12 9 -24 11 -30 6 -7 -6 -19 -4 -30 5 -11 8 -14 14 -8 14 7 0 12 5 12 11 0 7 -8 6 -22 -3 -18 -12 -24 -28 -29 -74 l -6 -59 -1 73 c -2 59 1 72 13 72 51 0 106 76 106 147 1 63 -12 93 -55 131 -88 77 -218 41 -262 -73 -28 -74 0 -153 70 -196 17 -10 26 -19 20 -19 -6 0 -27 11 -47 24 -19 13 -39 21 -43 18 -4 -4 -5 -2 -2 3 4 6 -3 26 -13 45 -14 24 -17 27 -12 10 4 -14 7 -35 6 -46 -1 -24 -36 -64 -56 -64 -7 0 -18 -9 -25 -20 -7 -11 -18 -20 -25 -19 -9 0 -9 2 1 6 6 2 12 10 12 15 0 6 -3 9 -6 5 -9 -8 -31 15 -37 39 -2 10 -5 -16 -6 -58 -1 -79 -4 -86 -43 -93 -22 -5 -48 -30 -48 -46 0 -4 15 -10 32 -13 99 -14 -242 8 -377 25 -665 84 -1357 310 -1938 632 -509 283 -918 597 -1339 1026 -649 661 -1124 1442 -1383 2277 -159 514 -239 1017 -252 1586 -14 637 85 1298 283 1885 150 443 317 792 579 1208 316 501 742 979 1254 1403 227 189 556 415 793 546 264 145 329 178 486 248 794 355 1562 514 2380 494 572 -14 1035 -94 1567 -271 717 -239 1371 -608 1951 -1100 165 -140 489 -462 622 -619 345 -404 620 -815 816 -1218 301 -621 470 -1197 546 -1863 26 -228 37 -719 22 -958 -52 -784 -248 -1514 -587 -2179 -162 -319 -301 -542 -531 -848 -289 -385 -565 -677 -939 -995 -639 -544 -1418 -940 -2247 -1145 -325 -80 -684 -134 -958 -143 -63 -3 -97 -3 -75 0 z " fill="#0B083D" />
    <path id="path6" d="M 6970 -11912 l 0 227 -180 179 -180 179 0 333 0 334 -35 0 -35 0 0 -346 0 -347 180 -181 180 -182 0 -212 0 -212 35 0 35 0 0 228 z m -1110 44 l 0 242 185 186 185 186 0 301 c 0 324 2 313 -51 313 -18 0 -19 -11 -19 -291 l 0 -291 -121 -126 c -67 -70 -150 -155 -185 -189 l -64 -62 0 -255 0 -256 35 0 35 0 0 242 z m 1498 8 l 2 245 -190 190 -190 190 0 296 c 0 162 -2 298 -5 301 -3 2 -18 3 -35 0 l -30 -4 0 -309 0 -310 185 -183 185 -183 0 -242 0 -242 38 3 37 3 3 245 z m -1868 109 l 0 308 180 177 180 176 -2 248 -3 247 -65 13 c -269 56 -560 145 -809 249 -431 179 -873 459 -1214 768 -64 58 -121 105 -125 103 -4 -2 -110 -110 -236 -240 l -229 -237 -51 44 c -83 70 -416 452 -416 476 0 4 72 10 161 14 l 161 7 31 -38 c 66 -81 168 -194 175 -194 7 0 154 148 253 254 l 41 44 -97 113 c -293 343 -521 719 -680 1119 -32 80 -61 149 -66 154 -5 6 -84 5 -206 -3 -161 -10 -225 -19 -343 -47 -79 -19 -160 -34 -180 -34 -61 0 -80 -10 -80 -39 0 -53 8 -54 120 -26 181 46 281 64 285 51 19 -67 76 -220 116 -314 61 -143 214 -441 275 -534 24 -38 44 -71 44 -74 0 -3 -63 -4 -139 -3 -77 0 -144 -2 -150 -5 -6 -4 -20 8 -31 26 -35 55 -164 318 -199 405 l -32 81 28 43 c 66 100 3 229 -112 229 -60 0 -106 -28 -133 -80 -49 -96 3 -194 110 -209 l 39 -6 49 -117 c 26 -65 78 -174 114 -243 l 65 -125 -29 0 c -94 0 -386 23 -396 31 -17 14 -23 59 -25 197 -1 67 -5 122 -9 122 -3 0 -4 23 -2 52 2 29 0 64 -5 78 -5 15 -10 -52 -13 -175 l -5 -200 -94 225 c -109 261 -203 519 -194 533 6 9 97 6 229 -9 46 -5 56 -4 52 7 -4 11 -38 15 -147 20 -78 3 -146 10 -150 15 -5 5 -16 32 -25 61 -12 35 -22 50 -31 47 -11 -5 -11 -13 -1 -47 7 -23 18 -41 24 -39 7 1 12 -2 12 -8 0 -5 -7 -10 -15 -10 -18 0 -19 -4 -5 -28 5 -9 28 -71 49 -138 58 -180 133 -364 217 -535 42 -83 73 -154 70 -157 -6 -6 -251 55 -277 69 -36 19 -226 515 -313 816 -18 62 -36 110 -41 105 -5 -4 -5 -2 -1 5 7 13 -12 102 -25 117 -14 15 -23 -25 -11 -45 18 -28 14 -37 -4 -10 -9 13 -16 34 -16 47 0 13 -5 24 -10 24 -6 0 -5 7 3 16 12 14 14 14 27 -3 13 -17 14 -16 9 7 -4 14 -14 60 -23 103 -9 42 -18 76 -19 75 -1 -2 -5 -16 -9 -31 -4 -19 -3 -27 4 -23 5 3 8 3 6 0 -3 -3 -1 -16 4 -29 8 -20 6 -22 -13 -17 -12 3 -17 7 -10 9 8 3 6 14 -5 36 -27 54 -24 15 13 -146 63 -281 171 -623 283 -897 61 -150 245 -516 328 -655 444 -738 995 -1336 1661 -1803 476 -333 942 -567 1478 -742 162 -53 561 -159 603 -160 l 22 0 0 309 z m 2306 60 c 154 35 309 78 460 128 l 112 37 32 -27 c 63 -53 169 -32 213 42 39 66 15 153 -53 198 -85 58 -205 -2 -219 -109 l -6 -42 -113 -38 c -122 -41 -283 -86 -402 -112 -41 -9 -83 -19 -92 -22 -16 -5 -18 5 -18 108 l 0 113 -180 180 c -146 146 -180 185 -180 207 0 25 4 28 34 28 74 0 322 59 531 127 661 214 1286 583 1803 1062 l 144 134 89 -89 89 -89 -68 -68 c -159 -162 -354 -325 -585 -489 -92 -65 -100 -69 -116 -54 -51 46 -141 38 -197 -18 -58 -58 -55 -152 6 -211 23 -22 41 -29 85 -33 47 -4 61 -1 94 21 43 29 71 79 71 130 0 29 6 40 32 58 198 138 440 335 611 499 l 118 113 130 -129 130 -129 -144 -141 c -270 -265 -680 -581 -997 -769 -36 -21 -67 -40 -69 -42 -2 -1 1 -15 8 -29 7 -16 17 -24 26 -20 21 8 334 218 440 295 225 164 496 394 654 556 l 114 117 84 -84 84 -84 -138 -135 c -255 -247 -503 -453 -763 -633 -176 -122 -513 -323 -517 -310 -2 6 -38 83 -79 170 -42 87 -99 207 -126 266 l -51 107 -144 58 c -126 50 -147 56 -171 46 -15 -6 -92 -39 -172 -73 -178 -76 -446 -166 -642 -216 -152 -38 -163 -45 -138 -84 8 -13 27 -11 142 19 248 63 615 194 781 278 l 49 24 119 -46 c 77 -30 125 -55 133 -69 8 -11 72 -144 142 -294 71 -149 132 -272 138 -272 20 0 309 171 480 283 229 152 407 285 571 428 795 695 1370 1539 1677 2463 38 115 67 210 64 213 -2 2 -12 -19 -21 -46 -9 -28 -21 -53 -26 -56 -5 -4 -6 2 -2 11 4 12 3 15 -5 10 -15 -9 -15 -5 -2 28 5 14 6 26 2 26 -4 0 -20 -39 -37 -88 -45 -136 -137 -377 -184 -483 -47 -108 -43 -105 -186 -149 -114 -35 -155 -44 -155 -33 0 4 7 21 16 38 33 61 156 332 179 395 83 225 116 326 112 342 -3 10 -2 16 3 13 11 -7 34 81 25 96 -5 8 -4 10 3 5 7 -4 12 -5 12 -3 0 3 18 76 40 163 50 200 93 410 87 427 -3 6 -6 2 -6 -10 -1 -12 -5 -24 -10 -27 -4 -3 -5 12 -1 34 4 22 4 40 0 40 -3 0 -14 -43 -23 -95 -23 -132 -61 -303 -98 -445 -28 -106 -34 -120 -53 -120 -17 0 -18 -2 -6 -10 13 -8 8 -30 -33 -155 -67 -206 -253 -635 -275 -635 -4 0 -5 55 -4 121 3 99 1 120 -9 117 -10 -3 -16 -42 -22 -148 -4 -79 -13 -150 -19 -157 -7 -9 -41 -13 -112 -13 l -101 0 -150 97 c -83 53 -174 110 -202 127 -29 17 -53 34 -53 39 0 4 27 60 59 125 83 166 160 352 225 544 89 265 176 643 176 769 0 48 -3 57 -20 62 -16 4 -20 -1 -25 -26 -17 -107 -102 -478 -135 -594 -174 -618 -458 -1139 -897 -1645 l -110 -126 -103 103 -103 103 94 104 c 173 189 366 459 462 645 l 48 93 84 -57 c 47 -31 86 -54 88 -52 16 20 209 437 239 514 117 303 214 725 254 1102 l 5 52 -33 4 c -24 3 -19 4 18 5 l 52 2 97 -102 98 -103 89 -4 c 86 -3 90 -4 84 -25 -3 -11 -6 -91 -6 -177 l 0 -155 -35 -17 c -104 -50 -99 -206 8 -251 44 -18 48 -18 91 -2 58 22 91 72 90 137 0 51 -31 103 -66 115 -21 6 -21 9 -14 205 3 110 9 252 12 318 l 7 119 -34 -2 -34 -2 -5 -99 -5 -100 -75 3 -75 4 -100 104 -100 104 -105 2 c -84 1 -95 3 -55 8 27 4 45 8 40 9 -5 1 -18 4 -27 7 -10 2 -46 7 -80 10 -35 3 -66 11 -70 18 -5 6 -8 2 -9 -12 -2 -30 -3 -35 -11 -47 -3 -6 -7 -37 -7 -70 0 -33 -12 -130 -26 -215 -71 -432 -210 -871 -380 -1204 -271 -529 -617 -956 -1070 -1320 -232 -185 -556 -396 -792 -515 l -63 -31 5 -48 c 4 -33 3 -41 -4 -27 -24 54 -30 53 -219 -22 -275 -110 -567 -199 -769 -236 l -68 -12 -3 -245 -3 -245 181 -175 180 -175 0 -136 c 0 -128 3 -149 21 -149 4 0 65 13 135 29 z m -1006 699 l 0 337 -50 -3 -50 -4 -1 -141 c -1 -78 -2 -167 -3 -197 -1 -30 2 -73 7 -95 4 -22 8 -45 9 -52 1 -7 4 -12 7 -11 21 2 32 -4 28 -15 -3 -7 4 -24 14 -38 21 -27 25 -49 8 -49 -5 0 -8 4 -5 8 3 5 -1 9 -8 9 -19 0 -15 -26 6 -33 16 -5 24 -29 19 -57 -1 -5 3 -6 9 -2 6 4 10 124 10 343 z m 90 522 c 609 56 1200 250 1740 573 796 476 1377 1201 1676 2088 82 247 147 542 186 849 16 125 15 609 -1 775 -69 702 -343 1410 -766 1981 -217 292 -485 564 -765 774 -529 398 -1099 647 -1724 755 -271 47 -318 50 -661 49 -360 0 -447 -9 -773 -74 -868 -173 -1721 -694 -2276 -1391 -190 -237 -309 -426 -452 -711 -201 -401 -315 -762 -384 -1208 -102 -660 2 -1461 271 -2092 197 -462 456 -847 808 -1199 659 -658 1529 -1071 2456 -1164 161 -16 512 -18 665 -5 z m 4391 2027 c 46 18 109 87 109 118 0 12 -11 39 -25 59 -14 20 -25 41 -25 46 0 6 25 10 54 10 l 55 0 -11 31 c -14 40 -89 152 -105 157 -7 2 -34 -39 -63 -97 l -50 -101 54 0 53 0 -8 -48 c -11 -58 -57 -105 -121 -122 -47 -13 -58 -23 -58 -59 0 -23 2 -23 51 -17 28 4 69 14 90 23 z m -8893 1141 l 143 2 -3 32 -3 33 -350 -1 c -1051 -1 -1155 -3 -1155 -20 0 -8 4 -24 10 -34 9 -17 37 -18 612 -15 332 1 667 3 746 3 z m -228 347 l 51 45 134 0 135 0 0 30 0 30 -146 0 -146 0 -51 -45 -52 -45 -552 0 -553 0 0 -24 c 0 -18 7 -26 22 -29 13 -2 267 -5 565 -6 l 542 -1 51 45 z m -309 254 c 60 60 109 116 109 125 0 18 -181 210 -213 228 -15 7 -24 5 -43 -13 -13 -12 -24 -27 -24 -33 0 -6 28 -39 62 -73 l 62 -63 -172 0 -173 0 3 -42 3 -43 169 -3 170 -3 -70 -70 -69 -70 30 -25 c 17 -13 34 -24 39 -24 4 0 57 49 117 109 z m 9592 -45 c 41 17 96 79 104 117 5 29 7 29 72 29 36 0 83 5 103 11 79 21 27 49 -92 49 l -78 0 -7 30 c -14 64 -99 130 -168 130 -18 0 -58 -12 -88 -28 -45 -23 -58 -35 -79 -79 l -25 -53 -241 0 c -132 0 -243 -2 -246 -5 -3 -3 -3 -17 0 -30 l 4 -25 242 0 242 0 12 -34 c 37 -101 149 -153 245 -112 z m -8959 576 c 9 120 30 260 62 420 108 523 291 980 573 1424 l 75 119 -99 94 c -55 51 -105 93 -112 93 -28 0 -241 -360 -364 -615 -99 -205 -154 -348 -223 -571 -101 -328 -142 -514 -182 -832 l -18 -142 -26 0 c -21 0 -45 20 -113 99 -95 107 -102 111 -210 111 l -60 0 6 82 c 4 46 7 135 7 198 l 0 115 30 17 c 65 37 90 131 50 195 -61 101 -214 74 -240 -43 -13 -57 -1 -93 44 -137 l 41 -40 -3 -201 c -1 -110 -8 -242 -14 -293 -10 -92 -5 -154 12 -137 5 5 11 36 13 69 l 3 60 2 -67 c 2 -52 5 -68 16 -68 18 0 30 68 24 134 l -3 46 79 0 79 0 46 -52 c 25 -29 69 -76 96 -106 l 50 -53 154 -6 c 123 -5 157 -9 170 -22 22 -23 26 -9 35 109 z m 8529 -85 l 41 45 553 0 554 0 -3 28 -3 27 -558 3 -557 2 -44 -40 -43 -40 -137 0 -136 0 0 -28 c 0 -16 3 -32 7 -35 3 -4 69 -7 146 -7 l 140 0 40 45 z m 1015 362 c 63 4 72 7 72 24 0 12 -10 23 -26 29 -15 6 -298 10 -735 10 l -709 0 0 -28 c 0 -16 2 -31 4 -33 6 -6 1306 -8 1394 -2 z m -9831 364 c 93 378 221 725 398 1080 56 112 65 136 65 184 0 65 17 74 22 13 4 -42 4 -42 15 -17 16 37 63 113 166 272 l 90 138 61 -58 c 34 -32 100 -95 147 -141 66 -64 88 -80 96 -70 44 57 65 91 51 79 -25 -19 -72 12 -237 154 l -133 115 -58 -82 c -351 -505 -611 -1078 -730 -1615 -11 -51 -20 -96 -20 -101 0 -4 12 -7 27 -6 24 1 29 6 40 55 z m 8508 359 c 83 5 197 16 255 24 58 9 145 20 195 24 l 90 7 3 34 c 2 18 0 37 -5 42 -5 5 -31 2 -58 -7 -38 -11 -289 -53 -326 -54 -4 0 -10 12 -14 28 -4 15 -38 108 -77 207 -195 494 -514 991 -880 1371 -49 50 -88 94 -88 98 0 5 78 87 173 184 95 98 202 207 238 244 36 38 70 68 75 68 21 0 401 -431 472 -535 15 -22 52 -74 83 -115 76 -103 159 -227 159 -239 0 -5 4 -11 9 -13 13 -4 160 -253 184 -310 11 -27 25 -48 32 -48 7 0 18 -15 25 -32 8 -18 38 -85 68 -148 29 -63 79 -173 109 -245 61 -141 69 -157 60 -108 -3 17 -3 33 1 36 4 2 1 2 -6 1 -6 -2 -12 4 -12 12 0 9 5 12 11 8 16 -9 6 19 -61 176 -92 214 -101 231 -118 237 -23 9 -33 25 -27 44 3 8 -2 24 -10 35 -8 10 -15 14 -15 7 0 -6 4 -15 10 -18 6 -3 10 -11 10 -17 0 -6 -6 -5 -16 3 -9 8 -13 21 -10 35 3 12 -3 43 -14 69 -11 26 -21 70 -22 98 l -1 52 -6 -45 -6 -45 -58 100 c -32 55 -61 105 -65 111 -7 12 -138 202 -223 323 -63 91 -216 274 -364 436 -70 77 -132 150 -138 163 -9 20 -5 28 29 65 22 23 54 58 71 78 l 31 37 59 -62 c 293 -302 574 -676 819 -1090 74 -125 112 -197 265 -506 20 -41 44 -96 54 -123 25 -68 29 -52 6 23 -11 35 -18 67 -15 72 3 4 0 8 -6 8 -7 0 -10 7 -6 15 3 8 0 14 -6 12 -17 -3 -20 20 -3 27 12 4 22 -9 42 -54 14 -33 28 -59 30 -56 3 2 -23 63 -58 135 -34 72 -64 129 -66 127 -2 -2 7 -29 21 -60 14 -31 21 -54 16 -51 -4 3 -10 0 -12 -7 -3 -7 -7 -5 -11 6 -4 10 -3 15 3 11 19 -12 10 7 -22 49 -18 22 -26 36 -17 31 13 -9 13 -8 -1 5 -8 9 -16 22 -18 30 -2 8 -7 17 -11 20 -10 8 -35 49 -80 133 -23 42 -50 93 -61 112 -23 41 -25 49 -8 39 7 -4 11 -5 8 -1 -3 3 -8 5 -12 4 -8 -2 -37 34 -38 46 0 5 5 5 12 1 8 -5 9 -2 4 11 -5 15 -4 16 9 5 17 -14 21 -35 5 -25 -6 3 -10 1 -10 -5 0 -7 6 -10 14 -7 8 3 24 -12 41 -39 35 -55 42 -57 15 -4 -158 309 -504 779 -843 1144 -204 220 -615 563 -949 793 -97 66 -98 67 -98 54 0 -6 4 -11 10 -11 11 0 102 -67 112 -84 4 -6 8 -7 8 -3 0 9 100 -59 145 -98 19 -17 23 -24 12 -21 -11 3 -15 2 -12 -4 3 -6 2 -10 -4 -10 -5 0 -13 4 -16 10 -7 11 -45 33 -45 26 0 -2 39 -35 88 -72 155 -120 374 -307 484 -412 l 107 -104 -31 -26 c -17 -15 -55 -50 -85 -77 l -54 -50 -73 70 c -134 129 -298 269 -426 364 -69 51 -77 55 -43 22 49 -48 48 -50 -7 -16 -22 14 -40 23 -40 21 0 -2 82 -72 182 -155 172 -141 368 -326 368 -347 0 -5 -81 -90 -180 -189 -100 -100 -180 -173 -180 -163 0 9 -26 38 -58 65 -65 57 -89 73 -77 53 5 -9 4 -11 -3 -6 -7 4 -22 9 -34 11 -11 3 -32 14 -45 26 -12 13 -23 17 -23 11 0 -6 47 -53 105 -103 58 -51 105 -98 105 -104 0 -6 -83 -94 -185 -194 -102 -101 -185 -187 -185 -192 0 -4 19 -23 41 -41 57 -45 224 -238 332 -382 243 -327 418 -634 548 -966 28 -69 54 -135 59 -146 7 -18 15 -21 57 -17 26 2 115 8 198 13 z m 401 269 c 138 63 113 258 -36 278 l -38 5 -48 112 c -97 227 -205 430 -340 636 -79 121 -238 338 -252 344 -8 4 -12 -6 -12 -35 0 -35 14 -61 109 -197 176 -255 316 -503 431 -764 l 51 -118 -27 -35 c -59 -77 -37 -180 46 -223 53 -27 63 -27 116 -3 z m -8888 71 c 73 45 94 147 44 217 l -22 31 105 209 c 202 403 461 774 740 1061 l 91 94 86 -89 c 149 -151 368 -368 377 -371 5 -2 19 10 32 25 71 83 381 345 552 466 222 157 504 312 796 436 150 65 375 144 461 162 l 50 11 0 357 0 358 170 184 169 184 1 154 c 0 149 -7 203 -12 89 -2 -43 -6 -55 -18 -53 -11 1 -16 21 -21 81 -4 61 -6 42 -7 -82 l -2 -162 -136 -148 c -75 -82 -154 -171 -175 -197 l -39 -49 0 -159 0 -158 -42 -11 c -105 -28 -302 -95 -456 -156 -545 -215 -1021 -516 -1467 -928 l -86 -79 -90 89 c -49 49 -88 94 -87 99 5 19 199 195 329 299 415 332 896 617 1278 756 l 62 23 22 -20 c 35 -32 62 -43 109 -43 117 0 188 143 117 234 -56 71 -172 76 -231 10 -9 -11 -23 -41 -30 -68 l -14 -48 -95 -38 c -362 -144 -663 -311 -1007 -557 -169 -121 -373 -288 -506 -414 -46 -43 -88 -79 -93 -79 -5 0 -122 114 -261 254 l -251 254 -22 -24 -22 -23 96 -100 c 52 -55 157 -159 232 -232 75 -73 146 -146 157 -161 l 20 -29 -79 -82 c -326 -341 -577 -701 -790 -1132 l -83 -169 -36 -3 c -69 -4 -130 -58 -140 -124 -8 -50 25 -122 68 -149 43 -26 113 -26 156 0 z m 8592 260 c 23 42 -242 519 -446 801 -90 126 -253 326 -300 369 -21 19 -31 26 -21 14 37 -44 14 -59 -29 -19 -47 44 -38 27 23 -43 103 -116 240 -292 322 -412 166 -243 353 -565 396 -682 19 -51 38 -61 55 -28 z m -1764 1428 c 28 42 75 114 103 159 l 51 82 -58 43 c -31 23 -111 77 -177 119 -369 235 -742 405 -1156 524 -147 42 -406 105 -434 105 -3 0 -5 47 -5 104 0 58 -4 115 -9 128 -5 13 -91 108 -190 212 l -181 190 0 253 0 253 -35 0 -35 0 0 -265 0 -266 178 -185 c 97 -102 181 -193 187 -202 6 -10 8 -134 6 -314 l -3 -297 26 -7 c 54 -13 56 -8 56 166 0 88 4 160 9 160 28 0 236 -46 364 -81 441 -119 877 -317 1255 -571 42 -28 87 -59 99 -68 l 22 -17 -60 -89 c -87 -128 -113 -182 -98 -200 20 -25 33 -15 85 64 z m 569 194 c 62 69 96 144 102 222 l 5 63 -123 90 c -181 131 -297 209 -480 324 -151 94 -164 100 -176 83 -7 -10 -13 -22 -13 -26 0 -5 34 -30 76 -56 140 -88 378 -247 517 -346 134 -97 138 -100 132 -130 -19 -101 -29 -121 -89 -178 -58 -57 -59 -58 -41 -78 10 -11 24 -20 31 -20 7 0 34 24 59 52 z m -694 -1 c 15 28 11 32 -151 129 -318 191 -626 326 -969 426 -121 35 -156 42 -163 32 -19 -31 -1 -42 127 -79 393 -113 811 -304 1080 -493 60 -42 61 -42 76 -15 z m -3066 448 c 19 8 20 16 16 302 l -3 295 28 34 c 16 19 100 109 186 199 l 158 165 0 273 c 0 150 -3 273 -8 273 -4 0 -17 -3 -29 -6 -22 -6 -22 -8 -25 -258 l -3 -253 -181 -190 c -214 -225 -194 -165 -194 -571 0 -297 -2 -285 55 -263 z m 1125 300 l 0 259 -185 196 -185 196 0 290 0 290 -25 0 c -25 0 -25 0 -25 -98 -1 -53 -3 -191 -7 -305 l -5 -208 104 -107 c 57 -59 140 -146 186 -193 l 82 -87 0 -240 c 0 -221 1 -241 18 -245 43 -12 42 -19 42 252 z m -360 -149 c 0 84 1 88 24 94 34 8 94 79 102 120 20 109 -58 205 -167 206 -85 0 -169 -83 -169 -168 0 -69 65 -162 114 -162 13 0 16 -14 16 -88 0 -49 2 -91 5 -93 2 -3 20 -3 40 -1 l 35 4 0 88 z m 1875 84 c 71 47 77 166 10 225 -59 51 -129 53 -193 4 -28 -21 -37 -23 -60 -14 -15 5 -69 26 -121 46 -52 19 -100 34 -105 32 -6 -2 7 -10 29 -17 22 -7 54 -21 71 -31 17 -11 38 -19 45 -19 17 0 83 -39 77 -45 -3 -3 -51 11 -108 30 -138 46 -150 44 -24 -5 144 -54 144 -54 144 -98 0 -112 135 -174 235 -108 z " fill="#FFF" />
    <path id="path7" d="M 5230 -11934 c -940 238 -1761 695 -2477 1379 -153 145 -167 164 -152 199 14 30 16 31 166 12 l 111 -14 149 -132 c 134 -119 148 -135 145 -161 -12 -105 88 -180 178 -134 28 15 30 14 114 -49 129 -96 386 -265 526 -346 166 -96 476 -247 625 -304 202 -79 192 -72 204 -123 16 -60 35 -88 76 -107 63 -30 122 -19 177 32 l 28 25 160 -44 160 -44 0 -117 c 0 -65 -3 -118 -8 -117 -4 0 -86 20 -182 45 z " fill="#0B083D" />
    <path id="path8" d="M 5305 -11644 c -49 13 -111 30 -137 36 -43 10 -48 15 -54 46 -4 19 -22 52 -41 73 -61 67 -142 72 -211 14 l -28 -23 -150 57 c -405 157 -789 369 -1174 648 -93 68 -95 70 -100 116 -7 59 -36 98 -86 115 -33 11 -45 11 -78 -2 l -38 -15 -97 86 c -105 93 -142 129 -126 120 10 -5 371 -47 540 -62 39 -4 84 -8 101 -10 17 -2 68 -27 112 -57 76 -49 82 -55 82 -88 0 -54 30 -102 80 -128 24 -12 55 -22 69 -22 39 0 105 37 124 69 21 36 22 112 2 151 -37 72 -135 96 -208 51 l -37 -22 -92 62 c -51 34 -129 89 -173 122 -83 63 -332 274 -354 301 -12 14 -1 29 75 109 l 89 93 115 -108 c 220 -205 503 -407 820 -584 332 -185 702 -336 1052 -430 107 -29 108 -29 108 -59 0 -38 10 -75 20 -75 4 0 11 20 14 45 4 25 13 45 19 45 7 0 61 -9 121 -20 60 -11 111 -20 113 -20 2 0 3 -12 3 -28 -1 -21 -21 -46 -96 -116 l -94 -88 -34 16 c -43 20 -50 20 -42 0 5 -12 2 -15 -11 -10 -10 4 -3 -6 14 -21 l 33 -27 -65 -67 -65 -67 0 -126 c 0 -94 -3 -126 -12 -125 -7 0 -54 11 -103 25 z " fill="#0B083D" />
    <path id="path9" d="M 5328 -11177 c 3 25 -1 27 -85 52 -334 100 -531 173 -769 283 -121 57 -126 58 -143 39 -8 -11 -7 -18 7 -29 25 -23 187 -102 316 -155 207 -85 634 -227 661 -219 5 1 11 14 13 29 z " fill="#FFF" />
    <path id="path10" d="M 4730 -10611 c -446 207 -754 393 -1019 615 -55 46 -79 72 -68 74 8 2 20 17 26 34 10 28 9 29 -6 17 -10 -8 -14 -9 -10 -2 8 12 -29 53 -47 53 -6 0 -5 -4 2 -9 11 -6 9 -9 -6 -13 -15 -4 -19 -2 -15 8 3 8 0 14 -5 14 -18 0 -24 -20 -11 -36 21 -25 5 -24 -26 1 -76 63 -98 75 -118 63 -9 -5 -17 -6 -17 -3 0 8 222 245 230 245 17 0 134 -119 135 -138 1 -19 -2 -21 -34 -17 -26 3 -30 2 -16 -4 11 -5 24 -6 29 -3 5 3 6 0 1 -7 -4 -7 -16 -11 -26 -8 -11 3 -19 1 -19 -4 0 -5 -12 -4 -28 2 l -27 10 29 -30 c 32 -34 28 -43 -4 -11 -27 27 -44 25 -58 -5 -10 -22 -7 -28 31 -64 23 -21 68 -60 100 -85 63 -51 83 -53 112 -10 20 31 13 54 -15 54 -11 0 -20 5 -20 12 0 6 -8 21 -18 32 -14 18 -13 18 9 -2 14 -12 29 -19 34 -15 4 5 5 3 2 -3 -4 -7 2 -14 13 -17 11 -3 19 -2 18 2 -2 20 4 30 16 25 8 -3 17 0 22 7 5 8 3 10 -6 4 -10 -6 -12 -4 -7 8 4 11 1 17 -9 17 -8 0 -12 4 -9 10 3 6 2 10 -4 10 -5 0 -25 13 -43 30 -18 16 -39 28 -48 25 -10 -3 -15 3 -16 20 -1 14 0 25 3 25 3 0 27 -20 54 -44 114 -102 384 -297 557 -400 63 -38 85 -58 34 -32 -38 19 -78 24 -75 8 2 -6 -2 -12 -8 -12 -5 0 -7 -5 -3 -11 4 -7 -1 -7 -16 1 -12 6 -28 9 -37 6 -9 -4 -59 21 -121 59 -109 66 -131 75 -133 53 -4 -46 11 -60 171 -160 121 -75 166 -109 90 -66 -64 35 -77 39 -84 22 -3 -8 -1 -12 4 -9 5 3 22 -6 37 -21 17 -16 21 -24 11 -21 -12 4 -16 1 -15 -12 0 -10 10 -18 26 -19 14 -1 28 -7 32 -13 4 -6 13 -9 20 -7 8 3 21 0 29 -7 20 -17 64 -30 57 -18 -4 6 3 8 16 6 15 -3 26 -16 33 -39 6 -19 7 -34 2 -34 -5 0 -7 -4 -3 -10 3 -5 13 -7 23 -4 13 5 14 4 3 -4 -11 -8 0 -17 47 -41 34 -17 62 -28 62 -24 0 5 4 3 8 -2 10 -14 72 -35 72 -24 0 4 7 6 15 3 9 -4 15 0 15 10 0 23 15 20 17 -4 1 -14 -4 -20 -19 -20 -22 0 -19 -10 4 -13 7 -2 24 -10 38 -20 27 -19 45 -22 35 -7 -3 5 1 10 9 10 8 0 18 -5 22 -12 5 -7 3 -8 -6 -3 -8 5 -11 3 -8 -6 3 -8 10 -13 14 -12 5 1 21 -7 34 -18 41 -31 12 -21 -120 40 z " fill="#0B083D" />
    <path id="path11" d="M 3460 -10394 c -453 49 -513 58 -532 81 -9 12 11 37 115 141 l 126 126 78 -70 c 43 -39 132 -115 198 -168 118 -97 154 -127 145 -125 -3 1 -61 8 -130 15 z " fill="#0B083D" />
    <path id="path12" d="M 2526 -10283 c -40 6 -99 65 -235 233 -147 182 -175 219 -169 225 3 3 36 -6 74 -19 38 -12 120 -38 183 -56 109 -32 114 -35 146 -78 29 -41 33 -56 44 -157 14 -140 14 -155 -1 -154 -7 1 -26 4 -42 6 z " fill="#0B083D" />
    <path id="path13" d="M 2749 -10142 c -114 115 -169 178 -169 191 0 4 96 11 214 14 118 4 221 10 229 13 15 5 87 -50 87 -67 0 -10 -239 -259 -249 -259 -3 0 -54 48 -112 108 z " fill="#0B083D" />
    <path id="path14" d="M 2590 -9902 c -24 8 -26 13 -52 212 -14 113 -27 221 -27 241 -1 36 0 37 41 42 39 4 46 1 68 -26 14 -18 68 -86 121 -152 54 -66 136 -162 183 -213 47 -50 86 -94 86 -95 0 -2 -6 -4 -12 -4 -7 0 -96 -3 -198 -6 -102 -3 -196 -3 -210 1 z " fill="#0B083D" />
    <path id="path15" d="M 2392 -9728 c -66 90 -143 197 -171 238 l -52 75 147 3 c 81 1 148 1 150 0 1 -2 8 -53 14 -113 11 -112 36 -301 45 -343 3 -12 1 -22 -3 -22 -5 0 -63 73 -130 162 z " fill="#0B083D" />
    <path id="path16" d="M 2252 -9831 l -163 46 -73 100 c -72 98 -74 101 -86 188 -7 48 -10 90 -8 92 2 2 45 1 95 -2 l 91 -6 69 -101 c 83 -123 237 -331 252 -340 15 -10 14 -26 -1 -25 -7 0 -86 22 -176 48 z " fill="#0B083D" />
    <path id="path17" d="M 3155 -9453 c -367 448 -597 834 -775 1303 l -47 125 56 7 c 31 3 98 8 150 10 l 94 3 22 -65 c 58 -170 193 -450 312 -648 84 -138 230 -342 338 -469 44 -52 90 -107 102 -122 l 22 -27 -102 -101 -102 -102 -70 86 z " fill="#0B083D" />
    <path id="path18" d="M 3243 -9309 c 7 12 -14 46 -88 145 -54 71 -136 188 -183 259 -92 139 -261 442 -306 550 -28 64 -38 73 -65 56 -18 -12 -13 -25 92 -236 122 -246 200 -374 357 -585 115 -154 162 -210 174 -207 5 2 14 10 19 18 z " fill="#FFF" />
    <path id="path19" d="M 2092 -9302 c -80 126 -185 313 -178 319 3 3 88 1 188 -5 101 -7 195 -12 209 -12 22 0 35 -14 85 -97 58 -97 71 -142 73 -255 l 1 -28 -164 0 -164 0 -50 78 z " fill="#0B083D" />
    <path id="path20" d="M 2616 -9308 c -72 96 -176 267 -176 290 0 16 11 18 114 18 62 0 127 3 143 6 28 5 33 0 108 -108 43 -62 104 -147 135 -189 l 57 -76 -81 -7 c -44 -3 -118 -6 -163 -6 l -83 0 -54 72 z " fill="#0B083D" />
    <path id="path21" d="M 1792 -9342 c -27 39 -131 229 -191 350 -48 95 -50 103 -29 96 13 -4 76 -22 142 -39 65 -17 122 -38 126 -46 6 -12 31 -313 30 -371 0 -30 -55 -23 -78 10 z " fill="#0B083D" />
    <path id="path22" d="M 7358 -10803 c 2 76 5 139 6 141 2 1 50 14 107 28 253 61 670 206 787 275 l 34 19 19 -22 c 10 -13 27 -46 38 -73 19 -49 20 -50 58 -49 63 1 398 169 601 302 178 116 447 333 630 507 l 113 108 31 -31 31 -31 -80 -75 c -300 -282 -659 -545 -1021 -748 -251 -141 -657 -310 -928 -387 -79 -22 -411 -101 -428 -101 -1 0 0 62 2 137 z " fill="#0B083D" />
    <path id="path23" d="M 10506 -10221 l -69 69 29 35 c 16 18 79 92 139 163 61 72 122 145 137 164 l 27 35 -25 -95 c -31 -114 -148 -433 -160 -437 -5 -2 -40 28 -78 66 z " fill="#0B083D" />
    <path id="path24" d="M 10640 -10254 c 0 6 24 80 54 165 29 85 66 199 81 254 36 135 41 146 143 292 49 71 131 198 182 283 51 85 98 160 103 165 6 6 7 -30 3 -100 -10 -157 -14 -198 -33 -310 -15 -93 -20 -105 -71 -180 -143 -207 -462 -600 -462 -569 z " fill="#0B083D" />
    <path id="path25" d="M 10266 -9981 l -128 128 84 95 c 100 112 218 259 277 344 31 45 50 63 71 68 68 13 92 85 45 131 -33 34 -70 32 -107 -5 -26 -27 -30 -36 -25 -70 5 -37 0 -44 -105 -177 -118 -147 -262 -313 -282 -325 -8 -4 -46 27 -101 82 l -89 90 45 47 c 180 190 391 471 539 720 l 72 122 150 -100 c 113 -76 148 -104 144 -117 -7 -23 -31 -262 -51 -502 -12 -134 -22 -203 -32 -219 -36 -56 -361 -441 -373 -441 -3 0 -63 58 -134 129 z " fill="#0B083D" />
    <path id="path26" d="M 10820 -9570 c 0 79 44 529 53 549 7 14 25 28 40 32 22 6 252 14 290 10 16 -2 -168 -324 -203 -356 -11 -10 -20 -22 -20 -27 0 -8 -129 -197 -151 -222 -5 -6 -9 0 -9 14 z " fill="#0B083D" />
    <path id="path27" d="M 11230 -9308 c 1 72 29 297 40 320 10 20 24 29 64 39 28 7 90 24 138 39 49 15 88 23 88 18 0 -14 -164 -335 -200 -392 -29 -45 -31 -46 -80 -46 -45 0 -50 2 -50 22 z " fill="#0B083D" />
    <path id="path28" d="M 6385 -10100 c -449 22 -895 133 -1328 331 -801 367 -1461 1063 -1787 1886 -126 317 -184 550 -236 948 -26 195 -24 578 5 793 89 678 330 1258 741 1784 446 571 1112 1019 1814 1223 331 95 574 133 918 141 208 4 268 2 416 -15 676 -81 1259 -315 1807 -726 663 -497 1158 -1286 1324 -2113 46 -225 60 -357 67 -604 11 -362 -20 -647 -106 -988 -119 -471 -317 -876 -631 -1289 -323 -426 -812 -815 -1316 -1045 -539 -246 -1097 -354 -1688 -326 z " fill="#0B083D" />
    <path id="path29" d="M 6128 -9828 c -3 28 -7 33 -33 36 -17 2 -108 19 -203 38 -315 62 -662 193 -946 356 -129 73 -365 231 -460 307 -45 36 -66 39 -66 9 0 -72 431 -360 776 -517 263 -120 729 -255 897 -260 37 -1 38 0 35 31 z m 1017 -16 c 216 38 541 133 740 218 223 95 505 257 689 395 135 102 161 128 146 146 -20 24 -36 18 -117 -46 -363 -288 -885 -528 -1355 -623 -205 -41 -198 -40 -198 -16 0 83 -36 374 -39 317 -1 -15 -4 -16 -22 -6 -22 11 -22 10 -16 -57 4 -38 9 -121 12 -184 3 -63 8 -125 11 -138 5 -27 25 -28 149 -6 z m -507 159 c 43 19 79 50 98 87 18 35 18 121 0 156 -19 36 -65 78 -98 91 l -28 11 2 227 c 0 126 3 213 5 195 9 -74 128 -80 417 -21 310 63 612 186 873 355 l 82 53 71 -91 c 38 -50 70 -93 70 -97 -1 -11 -189 -123 -324 -192 -189 -98 -483 -207 -629 -234 -27 -5 -37 -12 -37 -26 0 -24 -4 -24 110 6 298 76 594 206 830 364 48 33 78 47 84 41 29 -29 77 3 57 37 -6 12 10 30 73 80 44 36 99 83 121 104 l 41 39 57 -58 58 -58 -12 -47 c -10 -35 -10 -54 -1 -84 6 -21 8 -39 4 -41 -5 -1 -67 -46 -140 -100 -223 -166 -501 -323 -725 -411 l -108 -42 -35 30 c -40 36 -71 46 -118 37 -37 -7 -83 -47 -97 -84 -25 -64 3 -137 64 -165 43 -21 67 -21 111 -3 41 17 65 49 72 98 6 35 8 37 97 69 222 79 564 275 805 461 l 102 79 28 -21 c 62 -46 143 -43 202 7 42 35 60 73 60 129 0 120 -117 198 -225 150 l -30 -14 -307 306 -306 305 76 91 c 114 137 214 300 282 458 l 29 68 -47 0 c -26 0 -96 3 -157 6 l -110 6 -48 -80 c -104 -176 -250 -347 -402 -469 -191 -154 -478 -292 -700 -338 -104 -21 -240 -31 -231 -17 4 6 -1 11 -11 11 -30 -1 -102 11 -127 21 -13 5 -27 5 -32 0 -5 -4 -29 -11 -54 -14 -25 -3 -47 -5 -50 -6 -3 0 2 -5 10 -10 23 -15 -39 -13 -150 5 -267 44 -490 138 -721 307 l -66 48 -174 -1 c -96 0 -192 -3 -213 -7 l -39 -7 28 -33 28 -34 -304 -304 c -219 -219 -308 -302 -319 -297 -8 4 -42 8 -75 10 -70 4 -113 -16 -145 -69 -44 -73 -35 -160 23 -215 62 -59 142 -65 213 -17 l 34 24 98 -76 c 500 -391 1056 -617 1672 -679 62 -6 66 -9 93 -46 48 -70 138 -96 215 -64 z m -2525 926 c 8 13 -3 32 -54 92 -142 166 -317 431 -420 637 -116 232 -191 446 -278 790 -11 41 -20 65 -20 52 -1 -25 -11 -28 -30 -10 -19 18 -9 -41 34 -213 113 -449 322 -864 624 -1242 102 -128 121 -142 144 -106 z m 5019 51 c 119 137 284 377 381 558 75 139 175 373 232 545 53 161 102 361 91 372 -3 4 -6 -3 -6 -14 0 -11 -7 -26 -15 -33 -13 -11 -15 -8 -16 21 0 23 -13 -9 -38 -96 -110 -381 -260 -723 -428 -980 -60 -92 -200 -278 -274 -366 -19 -23 -27 -42 -23 -52 12 -31 41 -17 96 45 z m -4479 300 c 8 12 -7 35 -67 104 -73 85 -187 239 -234 316 l -22 36 21 36 c 17 30 20 48 17 93 -4 49 -10 61 -41 90 -32 28 -44 33 -87 33 l -51 0 -21 48 c -12 26 -43 106 -69 177 -38 105 -51 131 -68 133 -13 2 -21 -2 -21 -11 0 -25 69 -217 106 -294 l 34 -71 -20 -44 c -25 -54 -25 -79 -1 -127 23 -44 59 -70 105 -78 25 -4 37 -13 48 -37 31 -64 302 -408 331 -419 17 -7 29 -3 40 15 z m 3881 -7 c 27 18 174 198 268 329 61 86 66 90 115 101 88 20 130 60 140 132 11 85 -35 166 -101 178 -50 10 -80 0 -126 -41 -64 -58 -74 -135 -29 -210 l 19 -32 -81 -113 c -45 -63 -113 -152 -153 -197 -108 -127 -110 -130 -96 -147 15 -18 15 -18 44 0 z m -116 267 c 174 209 333 478 415 703 14 39 28 78 32 87 6 15 2 18 -22 18 -28 0 -31 -5 -63 -88 -47 -126 -158 -343 -228 -447 -33 -50 -103 -144 -156 -209 -75 -93 -94 -122 -85 -132 21 -25 38 -15 107 68 z m 870 62 c 34 32 37 39 37 88 0 91 -60 144 -141 124 -86 -22 -117 -151 -52 -216 24 -24 38 -30 74 -30 37 0 51 6 82 34 z m -5284 13 c 30 29 44 103 27 139 -15 33 -70 66 -104 61 -35 -5 -38 1 -124 223 -36 94 -62 148 -59 127 4 -35 3 -37 -11 -25 -14 11 -15 10 -8 -12 19 -65 80 -221 106 -273 l 29 -57 -21 -42 c -36 -71 -6 -148 65 -166 43 -11 71 -4 100 25 z m 716 -12 c 10 12 -5 41 -93 172 -115 172 -198 328 -256 480 -35 94 -38 98 -69 101 -18 2 -32 1 -32 -3 0 -19 101 -258 151 -355 81 -158 251 -410 278 -410 5 0 14 7 21 15 z m 2106 165 c 259 53 502 181 692 364 104 101 240 271 193 242 -5 -3 -44 -11 -87 -17 l -78 -11 -101 -96 c -207 -199 -421 -306 -695 -347 -371 -57 -756 65 -1022 323 l -78 75 0 -94 c 0 -94 0 -95 32 -126 89 -84 276 -197 415 -249 220 -83 511 -108 729 -64 z m -1388 562 l 2 307 53 -24 c 110 -51 168 -60 377 -59 155 0 208 4 259 18 159 43 241 122 294 279 20 59 22 85 25 559 l 3 498 -195 0 -195 0 -3 -458 c -3 -516 -1 -497 -82 -544 -39 -22 -51 -23 -211 -23 -157 0 -174 2 -223 24 -29 13 -62 37 -75 55 -22 31 -22 34 -25 489 l -3 457 -192 -2 -192 -3 -3 -930 c -1 -511 0 -936 3 -943 3 -10 48 -12 192 -10 l 188 3 3 307 z m 2252 237 c 143 31 239 98 289 204 56 119 55 101 52 915 l -1 222 -518 0 c -559 0 -589 -3 -692 -55 -89 -45 -147 -120 -176 -230 -18 -68 -18 -239 1 -301 35 -120 121 -198 260 -235 79 -21 209 -27 664 -29 l 84 0 -6 -56 c -6 -62 -24 -95 -64 -121 -24 -16 -68 -18 -448 -23 l -420 -5 -3 -140 c -1 -76 0 -145 3 -153 5 -13 72 -14 468 -9 254 3 482 10 507 16 z m -2902 139 l -3 147 -437 5 -438 5 -26 27 c -34 33 -38 106 -9 138 31 34 82 40 360 40 193 0 289 4 336 14 184 39 279 150 295 343 14 171 -37 325 -131 396 -27 20 -79 47 -115 59 -63 22 -79 23 -598 26 l -532 3 0 -159 0 -159 457 -2 c 363 -2 462 -5 483 -16 69 -36 65 -165 -7 -193 -17 -7 -143 -13 -323 -15 -234 -3 -307 -7 -353 -20 -121 -35 -191 -90 -235 -186 -21 -45 -27 -76 -30 -155 -9 -204 47 -320 189 -391 99 -51 128 -53 642 -54 l 478 -1 -3 148 z m 4525 -133 c 141 30 223 84 276 184 57 108 61 145 61 674 l 0 477 -189 -2 -190 -3 -5 -444 c -5 -438 -5 -444 -28 -489 -40 -80 -63 -87 -333 -90 -127 -1 -235 1 -242 5 -8 6 -12 146 -15 513 l -4 505 -192 3 -192 2 0 -675 0 -675 492 0 c 392 0 507 3 561 15 z m -3432 1597 c 153 108 347 188 529 217 274 45 599 -38 844 -213 l 78 -57 105 3 105 3 -84 71 c -272 232 -548 336 -893 338 -154 1 -239 -13 -405 -66 -172 -55 -352 -160 -490 -287 l -65 -60 33 -1 33 0 -7 -67 -7 -67 70 63 c 39 35 108 90 154 123 z m -2417 8 c 132 385 344 763 598 1063 26 30 30 41 22 55 -6 9 -17 17 -24 17 -35 0 -290 -356 -409 -571 -78 -140 -177 -358 -225 -492 -44 -126 -45 -134 -9 -130 24 3 31 11 47 58 z m 672 -38 c 3 13 15 47 26 76 l 19 52 54 0 c 46 0 60 5 89 30 61 54 70 128 25 192 -22 30 -22 31 -4 62 32 55 130 188 213 288 44 53 88 107 97 120 l 16 23 271 -275 c 149 -151 277 -284 285 -297 14 -21 12 -25 -29 -75 -57 -67 -158 -203 -158 -211 0 -4 35 -7 78 -7 l 77 0 26 38 c 58 81 185 217 272 289 265 221 544 347 865 394 138 19 443 7 572 -24 400 -95 759 -331 986 -647 l 36 -50 85 0 85 0 -36 50 c -20 28 -68 91 -106 140 l -71 91 20 27 c 11 15 138 145 283 289 l 263 261 103 -124 c 101 -123 218 -279 241 -322 10 -19 9 -27 -8 -49 -39 -49 -22 -150 31 -187 28 -20 90 -21 127 -2 38 20 65 84 58 137 -8 57 -42 90 -100 96 -43 5 -48 9 -82 64 -57 92 -142 205 -242 320 l -91 106 56 56 c 55 53 58 55 82 42 68 -38 177 0 217 75 89 167 -112 331 -254 207 -60 -53 -78 -122 -49 -192 l 15 -34 -57 -50 -57 -50 -50 48 c -27 26 -77 70 -111 98 -56 45 -60 51 -52 78 12 47 -7 106 -46 143 -30 27 -43 32 -85 32 -33 0 -56 -6 -74 -20 l -26 -21 -73 47 c -91 59 -323 175 -423 212 -70 25 -75 29 -75 57 0 59 -56 105 -127 105 -62 -1 -103 -46 -103 -115 0 -104 112 -159 193 -95 l 25 20 71 -25 c 106 -38 269 -117 381 -187 l 100 -62 0 -52 c 0 -43 5 -57 28 -82 44 -47 128 -62 169 -29 15 11 58 -21 168 -126 l 70 -66 -287 -286 -287 -286 -115 96 c -181 149 -371 262 -544 325 -34 12 -62 25 -62 27 0 2 10 1 22 -3 13 -4 38 -10 56 -15 l 33 -7 -23 22 c -13 12 -26 21 -30 19 -3 -2 -4 6 -1 17 3 12 2 20 -3 19 -20 -3 -35 2 -29 10 3 6 -3 14 -12 20 -10 6 -14 11 -9 11 5 0 3 7 -4 15 -8 10 -9 15 -2 15 7 0 9 7 5 17 -5 12 -2 15 10 10 9 -3 17 -3 17 2 0 7 -89 38 -191 67 -21 6 -21 8 -14 193 4 102 8 187 9 188 6 7 235 -52 339 -87 226 -76 533 -244 724 -395 54 -43 59 -45 71 -28 12 16 8 23 -40 66 -145 132 -483 325 -706 402 -110 38 -321 91 -402 101 l -50 7 0 -113 0 -113 -23 25 c -13 14 -32 28 -43 31 -123 38 -197 55 -209 51 -13 -5 -15 23 -15 222 l 0 229 39 16 c 103 43 133 181 58 266 -69 79 -176 85 -251 15 -89 -83 -69 -230 39 -282 l 45 -22 0 -91 c 0 -51 -3 -153 -7 -228 l -6 -137 -61 -12 c -34 -6 -107 -21 -163 -32 l -101 -21 -7 -122 -7 -123 -162 -53 c -115 -39 -153 -55 -133 -57 19 -2 27 -8 24 -16 -3 -8 1 -25 8 -40 13 -24 12 -26 -3 -24 -19 3 -24 -24 -4 -28 7 -1 8 0 2 3 -5 2 -10 9 -10 15 0 6 6 5 15 -2 12 -10 13 -16 4 -26 -6 -8 -16 -11 -22 -7 -5 3 -7 1 -4 -5 7 -10 28 -10 82 2 16 4 -9 -8 -56 -27 -206 -83 -396 -203 -559 -354 l -65 -61 -368 362 -367 361 16 48 c 13 38 15 56 6 83 -10 33 -9 35 41 81 233 210 626 441 943 553 l 88 31 20 -25 c 28 -33 57 -46 103 -46 121 0 178 146 89 227 -30 28 -43 33 -84 33 -68 0 -113 -31 -131 -91 -13 -43 -16 -46 -80 -69 -218 -77 -484 -212 -691 -351 -138 -93 -311 -234 -317 -260 -5 -17 -8 -16 -39 10 -99 87 -257 28 -271 -102 -7 -61 11 -109 57 -151 49 -44 95 -53 158 -33 l 47 16 57 -56 56 -56 -110 -126 c -96 -109 -226 -288 -244 -335 -4 -10 -19 -16 -41 -16 -50 0 -90 -25 -113 -70 -26 -50 -25 -93 1 -139 l 20 -37 -35 -74 c -43 -88 -44 -100 -12 -100 17 0 27 7 32 22 z m 4664 -17 c 0 21 -201 365 -269 462 -73 104 -172 207 -182 191 -18 -28 -6 -56 52 -123 80 -92 235 -326 293 -443 43 -85 48 -92 76 -92 17 0 30 2 30 5 z m 963 3 c 8 14 -114 319 -187 467 -76 154 -173 320 -254 435 -106 153 -204 279 -220 285 -11 4 -23 -1 -35 -16 -17 -21 -16 -22 21 -63 57 -62 189 -244 264 -364 122 -194 260 -482 327 -684 21 -63 25 -68 51 -68 16 0 31 3 33 8 z m -385 124 c -27 68 -55 128 -60 133 -8 7 -9 6 -4 -3 4 -6 3 -12 -2 -12 -4 0 -18 18 -29 39 -17 32 -19 41 -7 45 8 3 23 20 34 38 49 81 -1 188 -88 188 -77 0 -129 -59 -118 -135 9 -57 49 -94 111 -103 l 48 -7 58 -150 c 32 -83 59 -151 59 -153 0 -1 11 -2 24 -2 24 0 24 1 -26 122 z m -4109 541 c 256 196 416 283 703 382 127 44 138 50 138 72 0 22 -3 24 -32 18 -74 -15 -302 -97 -399 -142 -183 -87 -384 -219 -495 -327 -30 -29 -54 -58 -54 -64 0 -29 50 -7 139 61 z m 2701 -24 c 0 23 -13 39 -72 86 -155 124 -366 249 -533 315 -127 51 -317 102 -329 90 -22 -22 13 -44 139 -85 274 -90 485 -203 695 -373 41 -34 81 -61 88 -62 7 0 12 12 12 29 z m -2703 361 c 153 102 366 211 525 269 138 51 308 99 379 107 66 8 74 11 83 42 9 29 4 28 -159 -3 -271 -52 -560 -172 -821 -343 -65 -43 -124 -81 -131 -85 -7 -5 -42 31 -93 95 -45 57 -86 107 -90 111 -11 12 -47 -1 -54 -19 -4 -9 20 -42 63 -89 38 -41 88 -97 112 -124 23 -28 44 -51 46 -51 2 0 65 40 140 90 z m -732 576 c 353 276 740 476 1163 600 101 30 436 104 470 104 9 0 12 -31 12 -109 0 -63 4 -112 10 -116 6 -3 10 2 10 12 1 17 2 17 15 -1 13 -18 15 -5 15 123 l 0 144 -62 -7 c -195 -21 -460 -83 -688 -161 -197 -67 -542 -240 -731 -367 -218 -146 -369 -266 -369 -295 0 -32 52 -8 155 73 z m 4221 -74 c 15 24 -171 177 -377 311 -394 256 -800 415 -1257 493 -185 31 -201 31 -195 1 4 -22 14 -25 136 -46 254 -43 498 -111 712 -198 274 -111 618 -312 825 -480 117 -95 140 -107 156 -81 z " fill="#FFF" />
    <path id="path30" d="M 6220 -9503 c -183 19 -470 89 -680 165 -273 99 -580 271 -865 486 -56 43 -83 58 -92 51 -7 -7 -6 7 5 40 14 44 14 58 3 102 l -13 51 56 56 56 57 52 -52 c 118 -114 335 -269 367 -260 17 4 18 1 10 -26 -12 -44 6 -101 42 -131 23 -20 42 -26 77 -26 l 47 0 13 -52 c 33 -140 168 -199 282 -124 49 32 96 102 105 156 13 78 -34 168 -102 196 -39 17 -118 18 -162 3 -51 -18 -38 -32 26 -26 44 5 64 2 94 -14 61 -31 72 -54 69 -157 0 -27 -33 -77 -58 -91 -27 -14 -90 13 -138 60 -38 37 -44 40 -44 22 0 -13 17 -36 42 -57 37 -32 56 -40 95 -39 7 1 10 -3 7 -8 -7 -12 -57 -11 -91 2 -42 16 -72 48 -84 91 -8 33 -7 42 10 64 11 14 23 45 27 70 5 38 2 50 -20 85 -32 47 -101 85 -139 75 -14 -3 -39 -17 -55 -31 -28 -24 -30 -24 -43 -7 -8 10 -51 45 -97 77 -82 58 -285 222 -290 234 -1 3 101 109 227 235 l 230 230 73 -70 c 211 -200 495 -353 802 -431 56 -15 106 -31 113 -37 8 -7 13 -68 15 -184 l 3 -174 -45 7 c -25 4 -106 22 -180 41 -232 60 -490 172 -696 304 -118 75 -129 80 -141 64 -24 -33 -17 -41 97 -109 160 -96 462 -240 592 -283 218 -73 655 -144 692 -113 19 16 26 -34 26 -191 0 -132 -9 -178 -35 -178 -27 0 -103 -85 -110 -124 l -7 -36 -67 2 c -36 0 -82 3 -101 5 z " fill="#0B083D" />
    <path id="path31" d="M 6165 -9244 c 72 78 -20 202 -118 160 -19 -8 -38 -24 -42 -35 -8 -25 2 -25 -123 -1 -129 25 -136 25 -123 2 12 -22 59 -38 163 -54 70 -11 78 -15 78 -34 0 -61 119 -88 165 -38 z m -47 600 c -3 25 -11 29 -113 59 -282 83 -495 191 -719 364 -143 110 -165 120 -152 67 14 -55 270 -243 469 -342 177 -89 409 -171 490 -173 25 -1 28 2 25 25 z " fill="#FFF" />
    <path id="path32" d="M 6948 -8848 c 2 24 6 106 10 182 l 7 139 90 23 c 290 72 580 220 794 406 46 40 90 77 97 83 11 8 67 -43 239 -215 124 -124 225 -228 225 -231 0 -9 -219 -194 -233 -196 -7 -1 -43 38 -81 88 -40 52 -79 92 -92 95 -17 5 -52 -13 -141 -69 -241 -152 -476 -250 -773 -322 -145 -35 -146 -35 -142 17 z " fill="#0B083D" />
    <path id="path33" d="M 7160 -8645 c 122 33 299 103 420 167 197 103 439 285 428 320 -10 28 -41 16 -125 -51 -218 -172 -490 -307 -768 -382 -81 -22 -95 -30 -95 -61 0 -24 26 -23 140 7 z " fill="#FFF" />
    <path id="path34" d="M 7070 -6332 c -63 31 -78 139 -27 197 33 37 98 45 368 45 l 239 0 0 -130 0 -130 -272 0 c -240 0 -277 2 -308 18 z " fill="#0B083D" />
    <path id="path35" d="M 3632 -4300 c 20 33 13 48 -19 42 -18 -3 -24 -1 -19 7 4 6 2 11 -3 11 -6 0 -11 -4 -11 -9 0 -6 -9 -9 -19 -8 -16 1 -18 5 -10 19 12 23 1 23 -24 0 -67 -59 90 140 238 302 160 174 360 351 560 496 75 54 420 270 432 270 10 0 84 -170 78 -179 -3 -6 -16 -16 -28 -22 -21 -12 -21 -11 -5 8 21 23 23 34 5 27 -8 -3 -19 2 -26 10 -13 16 -53 -8 -326 -196 -304 -209 -512 -407 -809 -768 -16 -19 -22 -24 -14 -10 z " fill="#0B083D" />
    <path id="path36" d="M 9591 -4210 l -43 51 -20 -23 c -13 -15 -19 -18 -18 -8 7 45 -5 57 -37 37 -8 -5 -11 -1 -8 14 4 18 1 20 -19 15 -18 -4 -25 -1 -29 15 -4 14 -11 20 -20 16 -8 -3 -24 3 -36 14 -19 18 -21 18 -21 2 0 -11 -49 33 -125 114 -131 138 -284 275 -409 368 -108 80 -313 217 -379 254 -52 29 -60 31 -70 18 -10 -14 -15 -14 -30 -3 -16 13 -15 18 24 85 22 39 43 71 46 71 7 0 205 -123 318 -198 305 -204 631 -507 851 -794 81 -106 93 -129 25 -48 z " fill="#0B083D" />
    <path id="path37" d="M 10491 -5099 c -62 153 -122 290 -159 364 -182 367 -419 717 -679 1002 l -93 102 89 93 89 93 32 -30 c 70 -65 268 -298 375 -440 177 -236 310 -455 444 -736 75 -158 181 -416 181 -442 0 -13 -9 -17 -38 -17 -20 0 -81 -3 -134 -7 -96 -6 -97 -6 -107 18 z " fill="#0B083D" />
    <path id="path38" d="M 10523 -4820 c 7 12 -11 57 -71 175 -122 245 -243 446 -372 620 -74 100 -305 380 -338 408 -20 18 -42 16 -42 -3 0 -5 58 -80 128 -167 259 -320 420 -566 571 -875 85 -176 100 -195 124 -158 z " fill="#FFF" />
    <path id="path39" d="M 3535 -3489 l -90 90 65 60 c 419 384 869 684 1315 876 156 67 576 213 614 213 12 0 14 -32 5 -66 -4 -16 -19 -26 -52 -35 -54 -14 -121 -43 -84 -35 14 2 22 -1 22 -9 0 -8 8 -16 18 -18 16 -4 16 -5 -1 -6 -10 0 -15 -5 -12 -11 3 -6 1 -10 -5 -10 -8 0 -7 -6 1 -21 7 -13 7 -19 1 -15 -6 3 -13 -3 -17 -14 -3 -11 -15 -20 -25 -20 -11 0 -24 -10 -31 -21 -6 -13 -7 -19 -1 -15 6 3 13 0 15 -6 4 -8 8 -4 12 10 9 27 20 29 22 3 1 -15 -25 -28 -135 -71 -523 -202 -822 -374 -1247 -715 -77 -62 -171 -145 -210 -184 -38 -39 -74 -71 -80 -71 -6 0 -51 41 -100 91 z " fill="#0B083D" />
  </g>
</svg>